<?xml version="1.0" encoding="UTF-8" standalone="no"?>
<!DOCTYPE svg PUBLIC "-//W3C//DTD SVG 1.1//EN" "http://www.w3.org/Graphics/SVG/1.1/DTD/svg11.dtd">
<svg width="100%" height="100%" viewBox="0 0 600 600" version="1.1" xmlns="http://www.w3.org/2000/svg" xmlns:xlink="http://www.w3.org/1999/xlink" xml:space="preserve" xmlns:serif="http://www.serif.com/" style="fill-rule:evenodd;clip-rule:evenodd;stroke-linejoin:round;stroke-miterlimit:2;">
    <g id="All" transform="matrix(-1.83697e-16,-1,1,-1.83697e-16,5.68434e-14,700)">
        <path d="M350,150C322.404,150 300,127.596 300,100C300,72.404 322.404,50 350,50C350,22.404 372.404,0 400,0C427.596,0 450,22.404 450,50C477.596,50 500,72.404 500,100C500,127.596 477.596,150 450,150L450,250L550,250C550,222.404 572.404,200 600,200C627.596,200 650,222.404 650,250C677.596,250 700,272.404 700,300C700,327.596 677.596,350 650,350C650,377.596 627.596,400 600,400C572.404,400 550,377.596 550,350L450,350L450,450C477.596,450 500,472.404 500,500C500,527.596 477.596,550 450,550C450,577.596 427.596,600 400,600C372.404,600 350,577.596 350,550C322.404,550 300,527.596 300,500C300,472.404 322.404,450 350,450L350,350L250,350C250,377.596 227.596,400 200,400C172.404,400 150,377.596 150,350C122.404,350 100,327.596 100,300C100,272.404 122.404,250 150,250C150,222.404 172.404,200 200,200C227.596,200 250,222.404 250,250L350,250L350,150Z"/>
    </g>
</svg>
